<mxfile host="app.diagrams.net" agent="Mozilla/5.0 (Windows NT 10.0; Win64; x64) AppleWebKit/537.36 (KHTML, like Gecko) Chrome/133.0.0.0 Safari/537.36" version="26.0.16">
  <diagram name="第 1 页" id="YGkIGhc8p6K3rBfSbEaT">
    <mxGraphModel dx="1434" dy="746" grid="1" gridSize="10" guides="1" tooltips="1" connect="1" arrows="1" fold="1" page="1" pageScale="1" pageWidth="827" pageHeight="1169" math="0" shadow="0">
      <root>
        <mxCell id="0" />
        <mxCell id="1" parent="0" />
        <mxCell id="_HnQ62RtuMs_b8dpjfm0-1" value="AI" style="swimlane;whiteSpace=wrap;html=1;" vertex="1" parent="1">
          <mxGeometry x="80" y="150" width="200" height="460" as="geometry" />
        </mxCell>
        <mxCell id="_HnQ62RtuMs_b8dpjfm0-5" value="知识图谱" style="rounded=0;whiteSpace=wrap;html=1;" vertex="1" parent="_HnQ62RtuMs_b8dpjfm0-1">
          <mxGeometry x="40" y="70" width="120" height="60" as="geometry" />
        </mxCell>
        <mxCell id="_HnQ62RtuMs_b8dpjfm0-21" value="AI模型" style="ellipse;whiteSpace=wrap;html=1;" vertex="1" parent="_HnQ62RtuMs_b8dpjfm0-1">
          <mxGeometry x="55" y="190" width="90" height="70" as="geometry" />
        </mxCell>
        <mxCell id="_HnQ62RtuMs_b8dpjfm0-23" value="" style="shape=cross;whiteSpace=wrap;html=1;" vertex="1" parent="_HnQ62RtuMs_b8dpjfm0-1">
          <mxGeometry x="77.5" y="140" width="42.5" height="40" as="geometry" />
        </mxCell>
        <mxCell id="_HnQ62RtuMs_b8dpjfm0-27" style="edgeStyle=orthogonalEdgeStyle;rounded=0;orthogonalLoop=1;jettySize=auto;html=1;" edge="1" parent="_HnQ62RtuMs_b8dpjfm0-1" source="_HnQ62RtuMs_b8dpjfm0-25">
          <mxGeometry relative="1" as="geometry">
            <mxPoint x="150" y="390" as="targetPoint" />
          </mxGeometry>
        </mxCell>
        <mxCell id="_HnQ62RtuMs_b8dpjfm0-25" value="推理" style="rounded=1;whiteSpace=wrap;html=1;" vertex="1" parent="_HnQ62RtuMs_b8dpjfm0-1">
          <mxGeometry x="40" y="290" width="120" height="60" as="geometry" />
        </mxCell>
        <mxCell id="_HnQ62RtuMs_b8dpjfm0-24" style="edgeStyle=orthogonalEdgeStyle;rounded=0;orthogonalLoop=1;jettySize=auto;html=1;" edge="1" parent="_HnQ62RtuMs_b8dpjfm0-1" source="_HnQ62RtuMs_b8dpjfm0-21" target="_HnQ62RtuMs_b8dpjfm0-25">
          <mxGeometry relative="1" as="geometry">
            <mxPoint x="100" y="300" as="targetPoint" />
          </mxGeometry>
        </mxCell>
        <mxCell id="_HnQ62RtuMs_b8dpjfm0-28" value="演绎推理" style="rounded=1;whiteSpace=wrap;html=1;" vertex="1" parent="_HnQ62RtuMs_b8dpjfm0-1">
          <mxGeometry x="10" y="390" width="80" height="30" as="geometry" />
        </mxCell>
        <mxCell id="_HnQ62RtuMs_b8dpjfm0-26" style="edgeStyle=orthogonalEdgeStyle;rounded=0;orthogonalLoop=1;jettySize=auto;html=1;" edge="1" parent="_HnQ62RtuMs_b8dpjfm0-1" source="_HnQ62RtuMs_b8dpjfm0-25" target="_HnQ62RtuMs_b8dpjfm0-28">
          <mxGeometry relative="1" as="geometry">
            <mxPoint x="50" y="390" as="targetPoint" />
            <Array as="points">
              <mxPoint x="100" y="370" />
              <mxPoint x="51" y="370" />
            </Array>
          </mxGeometry>
        </mxCell>
        <mxCell id="_HnQ62RtuMs_b8dpjfm0-38" value="符号推理" style="rounded=1;whiteSpace=wrap;html=1;" vertex="1" parent="_HnQ62RtuMs_b8dpjfm0-1">
          <mxGeometry x="110" y="390" width="80" height="30" as="geometry" />
        </mxCell>
        <mxCell id="_HnQ62RtuMs_b8dpjfm0-2" value="DB" style="swimlane;whiteSpace=wrap;html=1;" vertex="1" parent="1">
          <mxGeometry x="280" y="150" width="840" height="460" as="geometry" />
        </mxCell>
        <mxCell id="_HnQ62RtuMs_b8dpjfm0-14" style="edgeStyle=orthogonalEdgeStyle;rounded=0;orthogonalLoop=1;jettySize=auto;html=1;entryX=0;entryY=0.5;entryDx=0;entryDy=0;" edge="1" parent="_HnQ62RtuMs_b8dpjfm0-2" source="_HnQ62RtuMs_b8dpjfm0-10" target="_HnQ62RtuMs_b8dpjfm0-12">
          <mxGeometry relative="1" as="geometry" />
        </mxCell>
        <mxCell id="_HnQ62RtuMs_b8dpjfm0-10" value="结构化数据" style="text;html=1;align=center;verticalAlign=middle;whiteSpace=wrap;rounded=0;" vertex="1" parent="_HnQ62RtuMs_b8dpjfm0-2">
          <mxGeometry x="120" y="50" width="100" height="30" as="geometry" />
        </mxCell>
        <mxCell id="_HnQ62RtuMs_b8dpjfm0-16" style="edgeStyle=orthogonalEdgeStyle;rounded=0;orthogonalLoop=1;jettySize=auto;html=1;entryX=0;entryY=0.5;entryDx=0;entryDy=0;" edge="1" parent="_HnQ62RtuMs_b8dpjfm0-2" source="_HnQ62RtuMs_b8dpjfm0-11" target="_HnQ62RtuMs_b8dpjfm0-15">
          <mxGeometry relative="1" as="geometry" />
        </mxCell>
        <mxCell id="_HnQ62RtuMs_b8dpjfm0-11" value="半结构化数据" style="text;html=1;align=center;verticalAlign=middle;whiteSpace=wrap;rounded=0;" vertex="1" parent="_HnQ62RtuMs_b8dpjfm0-2">
          <mxGeometry x="120" y="110" width="100" height="30" as="geometry" />
        </mxCell>
        <mxCell id="_HnQ62RtuMs_b8dpjfm0-12" value="关系型数据库" style="rounded=0;whiteSpace=wrap;html=1;" vertex="1" parent="_HnQ62RtuMs_b8dpjfm0-2">
          <mxGeometry x="270" y="50" width="120" height="30" as="geometry" />
        </mxCell>
        <mxCell id="_HnQ62RtuMs_b8dpjfm0-18" style="edgeStyle=orthogonalEdgeStyle;rounded=0;orthogonalLoop=1;jettySize=auto;html=1;exitX=0.5;exitY=1;exitDx=0;exitDy=0;entryX=0.5;entryY=0;entryDx=0;entryDy=0;" edge="1" parent="_HnQ62RtuMs_b8dpjfm0-2" source="_HnQ62RtuMs_b8dpjfm0-15" target="_HnQ62RtuMs_b8dpjfm0-17">
          <mxGeometry relative="1" as="geometry" />
        </mxCell>
        <mxCell id="_HnQ62RtuMs_b8dpjfm0-15" value="图数据库" style="rounded=0;whiteSpace=wrap;html=1;" vertex="1" parent="_HnQ62RtuMs_b8dpjfm0-2">
          <mxGeometry x="270" y="95" width="120" height="60" as="geometry" />
        </mxCell>
        <mxCell id="_HnQ62RtuMs_b8dpjfm0-17" value="图模式匹配&lt;div&gt;复杂查询&lt;/div&gt;" style="ellipse;whiteSpace=wrap;html=1;" vertex="1" parent="_HnQ62RtuMs_b8dpjfm0-2">
          <mxGeometry x="255" y="220" width="150" height="110" as="geometry" />
        </mxCell>
        <mxCell id="_HnQ62RtuMs_b8dpjfm0-6" style="edgeStyle=orthogonalEdgeStyle;rounded=0;orthogonalLoop=1;jettySize=auto;html=1;" edge="1" parent="1" source="_HnQ62RtuMs_b8dpjfm0-5">
          <mxGeometry relative="1" as="geometry">
            <mxPoint x="400" y="210" as="targetPoint" />
            <Array as="points">
              <mxPoint x="320" y="250" />
              <mxPoint x="320" y="210" />
            </Array>
          </mxGeometry>
        </mxCell>
        <mxCell id="_HnQ62RtuMs_b8dpjfm0-9" style="edgeStyle=orthogonalEdgeStyle;rounded=0;orthogonalLoop=1;jettySize=auto;html=1;entryX=0;entryY=0.5;entryDx=0;entryDy=0;" edge="1" parent="1" source="_HnQ62RtuMs_b8dpjfm0-5">
          <mxGeometry relative="1" as="geometry">
            <mxPoint x="400" y="275" as="targetPoint" />
          </mxGeometry>
        </mxCell>
      </root>
    </mxGraphModel>
  </diagram>
</mxfile>
